<?xml version="1.0" encoding="UTF-8" standalone="no"?>
<svg
   version="1.1"
   width="2033.5486"
   height="1355.2198"
   viewBox="0 0 2033.5486 1355.2198"
   id="svg4769"
   sodipodi:docname="hell-birne-karriere-klettern-licht.svg"
   inkscape:version="1.1 (c4e8f9ed74, 2021-05-24)"
   xmlns:inkscape="http://www.inkscape.org/namespaces/inkscape"
   xmlns:sodipodi="http://sodipodi.sourceforge.net/DTD/sodipodi-0.dtd"
   xmlns="http://www.w3.org/2000/svg"
   xmlns:svg="http://www.w3.org/2000/svg">
  <defs
     id="defs4773" />
  <sodipodi:namedview
     id="namedview4771"
     pagecolor="#ffffff"
     bordercolor="#666666"
     borderopacity="1.0"
     inkscape:pageshadow="2"
     inkscape:pageopacity="0.0"
     inkscape:pagecheckerboard="0"
     showgrid="false"
     inkscape:zoom="0.28483607"
     inkscape:cx="1334.1007"
     inkscape:cy="702.15826"
     inkscape:window-width="1366"
     inkscape:window-height="768"
     inkscape:window-x="0"
     inkscape:window-y="0"
     inkscape:window-maximized="1"
     inkscape:current-layer="layer1" />
  <g
     id="layer1"
     transform="translate(823.73584,89.74237)">
    <g
       style="fill:#000000;fill-opacity:1;stroke-linejoin:miter"
       id="g4718">
      <path
         d="M 157.52814,198.94302 107.56103,200.81094 Q 115.82089,468.84146 110.9417,546.72595 111.23292,560.7892 114.24724,568.6036 120.29899,585.5649 138.28763,591.49854 144.42029,593.4396 153.2582,593.7539 216.42017,590.5875 232.78047,594.83765 259.0531,599.38464 266.47318,614.6766 276.19482,634.1055 269.24356,682.56226 264.68106,719.8148 236.00323,829.09985 235.55182,847.3861 252.42838,854.64087 275.39514,860.34534 284.695,838.87537 307.14975,756.7916 313.948,718.724 322.38318,674.2139 321.51746,641.76013 321.02557,584.2077 281.66772,560.1194 245.83969,536.7483 160.9172,543.62415 165.79659,466.9875 157.5643,200.21487"
         id="path4716"
         style="fill:#000000;fill-opacity:1" />
    </g>
    <g
       style="fill:#000000;fill-opacity:1;stroke-linejoin:miter"
       id="g4722">
      <path
         d="M 127.26799,539.9595 Q 52.780052,690.8486 26.944489,801.6683 8.057687,877.18225 -9.968776,1022.3794 -11.143033,1038.915 4.1140194,1047.4901 27.896183,1055.6094 38.501972,1033.1907 L 52.469315,935.1991 Q 56.89318,905.78204 61.40796,880.8795 71.39921,825.4794 84.34578,779.86206 110.7223,686.5485 172.21535,561.86444 L 127.53017,540.08527"
         id="path4720"
         style="fill:#000000;fill-opacity:1" />
    </g>
    <g
       style="fill:#000000;fill-opacity:1;stroke-linejoin:miter"
       id="g4726">
      <path
         d="M 110.85106,236.31644 Q 7.585575,276.2102 -19.268246,340.95508 -32.487873,372.57428 -31.635296,419.86707 -30.871464,466.58942 -15.779846,541.614 -8.888973,556.2663 7.538616,556.88916 23.478058,556.1706 30.436172,541.261 32.64705,536.0277 32.145958,529.52795 19.564949,457.14423 18.550533,426.22443 16.972145,394.45306 22.763443,372.37833 34.529556,319.37317 130.5029,282.11404 L 110.90906,236.45161"
         id="path4724"
         style="fill:#000000;fill-opacity:1" />
    </g>
    <g
       style="fill:#000000;fill-opacity:1;stroke-linejoin:miter"
       id="g4730">
      <path
         d="M 153.27518,236.23361 104.21423,245.87946 Q 133.26625,409.34076 172.71475,459.28192 202.42984,498.0575 253.2357,499.73465 280.8166,500.5562 315.566,492.51147 332.19727,483.94177 329.89694,464.97693 326.66183,450.72028 312.85938,445.84003 308.74585,444.4673 303.59027,444.7497 274.8236,449.36597 263.63342,449.67566 252.74416,450.1612 244.59483,448.7206 224.63739,445.3072 212.06682,428.43146 180.58798,387.58768 153.35559,236.64836"
         id="path4728"
         style="fill:#000000;fill-opacity:1" />
    </g>
    <g
       style="fill:#000000;fill-opacity:1;stroke-linejoin:miter"
       id="g4734">
      <path
         d="M 125.48982,24.59537 Q 158.44234,25.10153 182.17705,48.474373 205.02068,72.42707 205.19704,105.01028 204.55647,138.34026 181.23795,161.77863 157.88002,184.33005 124.69017,184.7193 91.73956,184.17557 68.0332,160.78035 45.217308,136.80673 45.073067,104.22398 45.536285,71.658295 68.71228,47.8526 91.9176,25.185072 125.1037,24.59472 M 125.71153,-25.404657 Q 71.85402,-24.781734 33.734463,12.120096 -3.839696,50.13685 -4.926009,103.82226 -4.476261,157.53436 32.440144,195.8987 70.81211,233.78482 124.40895,234.71902 178.26732,234.15915 216.43492,197.29413 254.05377,159.31268 255.19489,105.62711 254.79932,51.915695 217.92856,13.516817 179.60373,-24.406336 126.01007,-25.4031"
         id="path4732"
         style="fill:#000000;fill-opacity:1" />
    </g>
    <g
       style="fill:#000000;fill-opacity:1;stroke-linejoin:miter"
       id="g4738">
      <path
         d="M 903.5966,441.7944 Q 884.7409,441.76108 876.16656,462.14795 L 874.2277,535.52325 641.26825,542.5439 Q 630.8018,544.0485 626.14264,548.24646 614.49896,557.7965 614.7701,571.86304 L 626.5798,661.83527 415.5368,672.57007 Q 405.35297,674.16846 400.33563,678.7975 392.18768,686.07666 390.54926,694.1412 L 363.4301,815.7936 214.72406,823.6648 Q 202.9151,824.74097 194.36139,835.82666 L 167.95569,1003.9502 -16.891846,1022.0211 Q -25.534363,1022.2466 -34.991882,1031.0042 L -84.443726,1182.134 -823.73584,1208.2678 -820.8643,1265.4775 -64.233826,1238.8519 Q -57.19867,1238.8586 -51.866882,1236.502 -40.591553,1231.2813 -36.438843,1220.6201 L 7.7299805,1077.1978 199.11212,1058.4036 Q 207.48773,1057.7019 216.32599,1048.8386 221.25653,1043.4232 222.93805,1034.6228 L 243.0954,880.4212 388.31415,872.72504 Q 397.29364,872.7611 407.028,864.0667 412.5728,857.9949 414.1131,851.5622 L 442.206,728.56226 660.70746,717.7484 Q 667.19147,717.3075 672.4174,714.51086 686.37555,706.84644 687.7242,690.18335 L 676.3791,598.7629 905.9356,591.87244 Q 915.7796,591.5216 923.6092,584.9904 932.7795,576.9133 933.57184,564.6209 L 931.9216,466.2485 Q 926.9117,444.3542 905.49225,441.85632"
         id="path4736"
         style="fill:#000000;fill-opacity:1" />
    </g>
    <g
       style="fill:#000000;fill-opacity:1;stroke-linejoin:miter"
       id="g4742">
      <path
         d="M 888.8734,-89.74237 Q 827.16345,-89.413 785.74084,-57.495983 744.74646,-24.598984 740.4617,27.019363 737.34436,70.386826 758.9422,125.00496 767.0458,144.92877 777.0333,161.26303 781.72473,170.59937 812.74225,208.36832 818.973,217.52637 821.2025,226.23853 828.9018,253.0886 820.4947,324.36642 L 857.6661,328.68393 Q 867.5958,251.27243 857.06226,214.78195 852.9253,200.9928 845.5012,189.68652 845.9096,188.49707 815.59906,151.3293 808.8726,142.084 802.7164,130.26057 787.36017,100.41199 780.68634,67.217636 771.0492,18.450577 792.0419,-10.166534 825.2991,-54.708702 899.5404,-51.800537 981.59094,-43.993973 1005.1106,2.6285477 1022.217,39.000153 998.3843,109.32387 990.101,131.8005 980.1576,147.496 974.19495,156.89539 967.1566,165.03595 935.5478,197.61823 935.022,200.26468 925.8951,213.06223 923.7009,227.15543 919.3798,251.20325 930.64984,292.8354 L 936.1545,312.78015 937.7185,316.3232 Q 941.23334,322.7286 949.40967,325.21027 968.41144,327.56525 972.6939,309.53232 973.1361,306.25015 972.45374,303.0657 962.76013,268.65475 960.88855,253.7172 958.7292,236.92001 961.9545,228.8995 963.3249,224.64603 968.62006,218.31839 997.19385,189.21127 1003.0826,180.4082 1013.8019,166.27594 1021.9231,149.80328 1045.1705,101.61838 1049.3014,53.14839 1055.1216,-9.94014 1013.3256,-47.83947 966.2889,-87.94049 889.281,-89.74198"
         id="path4740"
         style="fill:#000000;fill-opacity:1" />
    </g>
    <g
       style="fill:#000000;fill-opacity:1;stroke-linejoin:miter"
       id="g4746">
      <path
         d="M 931.4714,345.66974 929.6086,400.95276 872.21924,403.75488 866.6493,346.98895 931.29626,345.6731 M 960.6676,287.82175 832.2907,290.3846 Q 818.646,292.11316 811.1812,303.16483 806.16064,310.7882 806.5246,320.4298 L 818.38696,439.76648 Q 824.3179,460.88458 846.60565,462.2852 L 961.19586,456.77405 Q 973.8597,454.87305 981.2556,444.1501 985.2912,438.11896 985.9125,430.2989 L 989.7112,318.01132 Q 989.8281,315.10205 989.5252,312.89478 984.89655,289.51572 960.703,287.82123"
         id="path4744"
         style="fill:#000000;fill-opacity:1" />
    </g>
    <g
       style="fill:#000000;fill-opacity:1;stroke-linejoin:miter"
       id="g4750">
      <path
         d="M 898.1261,119.75158 Q 883.26776,120.86574 881.0033,135.48602 880.9513,136.22139 880.9627,136.97437 L 882.79846,314.00195 916.6427,313.41998 914.8608,136.88477 Q 914.84656,135.5869 914.7798,135.06154 912.30066,121.04926 898.16705,119.75213"
         id="path4748"
         style="fill:#000000;fill-opacity:1" />
    </g>
    <g
       style="fill:#000000;fill-opacity:1;stroke-linejoin:miter"
       id="g4754">
      <path
         d="M 605.3579,40.185856 Q 593.8158,40.654335 589.31903,50.924534 585.67365,61.699192 593.6837,69.67755 595.1172,70.997505 597.0473,72.05479 L 688.2593,120.40132 Q 691.9181,122.25664 695.63257,122.32614 707.2247,121.99333 711.82874,111.72169 715.62476,101.02737 707.49176,92.81707 706.054,91.49838 704.12006,90.44437 L 612.90625,42.097263 Q 609.24084,40.249214 605.5248,40.189182"
         id="path4752"
         style="fill:#000000;fill-opacity:1" />
    </g>
    <g
       style="fill:#000000;fill-opacity:1;stroke-linejoin:miter"
       id="g4758">
      <path
         d="M 613.3443,-36.850746 Q 602.39655,-36.574936 597.53235,-26.6566 593.57385,-16.337221 600.9378,-8.066156 602.6307,-6.2984333 605.073,-4.96089 L 675.1646,31.433403 Q 678.51166,33.129723 682.3484,33.251083 693.60693,32.968887 698.3556,23.04786 702.30615,12.726677 694.9335,4.459099 693.238,2.6919746 690.79346,1.3565903 L 620.7008,-35.03769 Q 617.35175,-36.730526 613.5133,-36.847366"
         id="path4756"
         style="fill:#000000;fill-opacity:1" />
    </g>
    <g
       style="fill:#000000;fill-opacity:1;stroke-linejoin:miter"
       id="g4762">
      <path
         d="M 1179.0011,-9.62463 Q 1175.3444,-9.674137 1171.6971,-8.006491 L 1090.9406,31.337742 Q 1088.8414,32.368004 1087.055,33.97606 1079.064,41.985493 1082.608,52.585617 1086.9178,62.751316 1098.2682,63.487583 1102.2761,63.5051 1105.7787,61.814182 L 1186.5281,22.471008 Q 1188.679,21.369362 1190.2526,19.933249 1198.2836,11.936979 1194.7705,1.3313131 1190.502,-8.832684 1179.1788,-9.622676"
         id="path4760"
         style="fill:#000000;fill-opacity:1" />
    </g>
    <g
       style="fill:#000000;fill-opacity:1;stroke-linejoin:miter"
       id="g4766">
      <path
         d="M 1193.0189,77.53396 Q 1190.0029,77.55296 1187.5054,78.4268 L 1100.2212,107.95428 Q 1097.9618,108.70971 1095.7952,110.24663 1086.614,117.65857 1089.5538,129.03047 1093.5358,140.02856 1105.4305,140.9321 1108.3501,140.98509 1111.1826,140.03012 L 1198.4655,110.50296 Q 1200.7206,109.74394 1202.8824,108.20465 1212.0447,100.78775 1209.0939,89.417786 1205.0981,78.417595 1193.1831,77.535706"
         id="path4764"
         style="fill:#000000;fill-opacity:1" />
    </g>
  </g>
</svg>
