<?xml version='1.0' encoding='utf-8'?>
<svg xmlns="http://www.w3.org/2000/svg" version="1.1" width="600px" height="976px" viewBox="0 0 600 976"> <g id="layer1"> <g style="fill:rgb(0,0,0); fill-opacity:1.0; stroke-linejoin: miter"> <path d="M157.52814,198.94302L107.56103,200.81094Q115.82089,468.84146,110.9417,546.72595Q111.23292,560.7892,114.24724,568.6036Q120.29899,585.5649,138.28763,591.49854Q144.42029,593.4396,153.2582,593.7539Q216.42017,590.5875,232.78047,594.83765Q259.0531,599.38464,266.47318,614.6766Q276.19482,634.1055,269.24356,682.56226Q264.68106,719.8148,236.00323,829.09985Q235.55182,847.3861,252.42838,854.64087Q275.39514,860.34534,284.695,838.87537Q307.14975,756.7916,313.948,718.724Q322.38318,674.2139,321.51746,641.76013Q321.02557,584.2077,281.66772,560.1194Q245.83969,536.7483,160.9172,543.62415Q165.79659,466.9875,157.5643,200.21487"/> </g> <g style="fill:rgb(0,0,0); fill-opacity:1.0; stroke-linejoin: miter"> <path d="M127.26799,539.9595Q52.780052,690.8486,26.944489,801.6683Q8.057687,877.18225,-9.968776,1022.3794Q-11.143033,1038.915,4.1140194,1047.4901Q27.896183,1055.6094,38.501972,1033.1907L52.469315,935.1991Q56.89318,905.78204,61.40796,880.8795Q71.39921,825.4794,84.34578,779.86206Q110.7223,686.5485,172.21535,561.86444L127.53017,540.08527"/> </g> <g style="fill:rgb(0,0,0); fill-opacity:1.0; stroke-linejoin: miter"> <path d="M110.85106,236.31644Q7.585575,276.2102,-19.268246,340.95508Q-32.487873,372.57428,-31.635296,419.86707Q-30.871464,466.58942,-15.779846,541.614Q-8.888973,556.2663,7.538616,556.88916Q23.478058,556.1706,30.436172,541.261Q32.64705,536.0277,32.145958,529.52795Q19.564949,457.14423,18.550533,426.22443Q16.972145,394.45306,22.763443,372.37833Q34.529556,319.37317,130.5029,282.11404L110.90906,236.45161"/> </g> <g style="fill:rgb(0,0,0); fill-opacity:1.0; stroke-linejoin: miter"> <path d="M153.27518,236.23361L104.21423,245.87946Q133.26625,409.34076,172.71475,459.28192Q202.42984,498.0575,253.2357,499.73465Q280.8166,500.5562,315.566,492.51147Q332.19727,483.94177,329.89694,464.97693Q326.66183,450.72028,312.85938,445.84003Q308.74585,444.4673,303.59027,444.7497Q274.8236,449.36597,263.63342,449.67566Q252.74416,450.1612,244.59483,448.7206Q224.63739,445.3072,212.06682,428.43146Q180.58798,387.58768,153.35559,236.64836"/> </g> <g style="fill:rgb(0,0,0); fill-opacity:1.0; stroke-linejoin: miter"> <path d="M125.48982,24.59537Q158.44234,25.10153,182.17705,48.474373Q205.02068,72.42707,205.19704,105.01028Q204.55647,138.34026,181.23795,161.77863Q157.88002,184.33005,124.69017,184.7193Q91.73956,184.17557,68.0332,160.78035Q45.217308,136.80673,45.073067,104.223976Q45.536285,71.658295,68.71228,47.8526Q91.9176,25.185072,125.1037,24.59472 M125.71153,-25.404657Q71.85402,-24.781734,33.734463,12.120096Q-3.839696,50.13685,-4.926009,103.82226Q-4.476261,157.53436,32.440144,195.8987Q70.81211,233.78482,124.40895,234.71902Q178.26732,234.15915,216.43492,197.29413Q254.05377,159.31268,255.19489,105.62711Q254.79932,51.915695,217.92856,13.516817Q179.60373,-24.406336,126.01007,-25.4031"/> </g> <g style="fill:rgb(0,0,0); fill-opacity:1.0; stroke-linejoin: miter"> <path d="M903.5966,441.7944Q884.7409,441.76108,876.16656,462.14795L874.2277,535.52325L641.26825,542.5439Q630.8018,544.0485,626.14264,548.24646Q614.49896,557.7965,614.7701,571.86304L626.5798,661.83527L415.5368,672.57007Q405.35297,674.16846,400.33563,678.7975Q392.18768,686.07666,390.54926,694.1412L363.4301,815.7936L214.72406,823.6648Q202.9151,824.74097,194.36139,835.82666L167.95569,1003.9502L-16.891846,1022.0211Q-25.534363,1022.2466,-34.991882,1031.0042L-84.443726,1182.134L-823.73584,1208.2678L-820.8643,1265.4775L-64.233826,1238.8519Q-57.19867,1238.8586,-51.866882,1236.502Q-40.591553,1231.2813,-36.438843,1220.6201L7.7299805,1077.1978L199.11212,1058.4036Q207.48773,1057.7019,216.32599,1048.8386Q221.25653,1043.4232,222.93805,1034.6228L243.0954,880.4212L388.31415,872.72504Q397.29364,872.7611,407.028,864.0667Q412.5728,857.9949,414.1131,851.5622L442.206,728.56226L660.70746,717.7484Q667.19147,717.3075,672.4174,714.51086Q686.37555,706.84644,687.7242,690.18335L676.3791,598.7629L905.9356,591.87244Q915.7796,591.5216,923.6092,584.9904Q932.7795,576.9133,933.57184,564.6209L931.9216,466.2485Q926.9117,444.3542,905.49225,441.85632"/> </g> <g style="fill:rgb(0,0,0); fill-opacity:1.0; stroke-linejoin: miter"> <path d="M888.8734,-89.74237Q827.16345,-89.413,785.74084,-57.495983Q744.74646,-24.598984,740.4617,27.019363Q737.34436,70.386826,758.9422,125.00496Q767.0458,144.92877,777.0333,161.26303Q781.72473,170.59937,812.74225,208.36832Q818.973,217.52637,821.2025,226.23853Q828.9018,253.0886,820.4947,324.36642L857.6661,328.68393Q867.5958,251.27243,857.06226,214.78195Q852.9253,200.9928,845.5012,189.68652Q845.9096,188.49707,815.59906,151.3293Q808.8726,142.084,802.7164,130.26057Q787.36017,100.41199,780.68634,67.217636Q771.0492,18.450577,792.0419,-10.166534Q825.2991,-54.708702,899.5404,-51.800537Q981.59094,-43.993973,1005.1106,2.6285477Q1022.21704,39.000153,998.3843,109.32387Q990.101,131.8005,980.1576,147.496Q974.19495,156.89539,967.1566,165.03595Q935.5478,197.61823,935.022,200.26468Q925.8951,213.06223,923.7009,227.15543Q919.3798,251.20325,930.64984,292.8354L936.1545,312.78015L937.7185,316.3232Q941.23334,322.7286,949.40967,325.21027Q968.41144,327.56525,972.6939,309.53232Q973.1361,306.25015,972.45374,303.0657Q962.76013,268.65475,960.88855,253.7172Q958.7292,236.92001,961.9545,228.8995Q963.3249,224.64603,968.62006,218.31839Q997.19385,189.21127,1003.08264,180.4082Q1013.8019,166.27594,1021.9231,149.80328Q1045.1705,101.61838,1049.3014,53.14839Q1055.1216,-9.94014,1013.3256,-47.83947Q966.2889,-87.94049,889.281,-89.74198"/> </g> <g style="fill:rgb(0,0,0); fill-opacity:1.0; stroke-linejoin: miter"> <path d="M931.4714,345.66974L929.6086,400.95276L872.21924,403.75488L866.6493,346.98895L931.29626,345.6731 M960.6676,287.82175L832.2907,290.3846Q818.646,292.11316,811.1812,303.16483Q806.16064,310.7882,806.5246,320.4298L818.38696,439.76648Q824.3179,460.88458,846.60565,462.2852L961.19586,456.77405Q973.8597,454.87305,981.2556,444.1501Q985.2912,438.11896,985.9125,430.2989L989.7112,318.01132Q989.8281,315.10205,989.5252,312.89478Q984.89655,289.51572,960.703,287.82123"/> </g> <g style="fill:rgb(0,0,0); fill-opacity:1.0; stroke-linejoin: miter"> <path d="M898.1261,119.75158Q883.26776,120.86574,881.0033,135.48602Q880.9513,136.22139,880.9627,136.97437L882.79846,314.00195L916.6427,313.41998L914.8608,136.88477Q914.84656,135.5869,914.7798,135.06154Q912.30066,121.049255,898.16705,119.75213"/> </g> <g style="fill:rgb(0,0,0); fill-opacity:1.0; stroke-linejoin: miter"> <path d="M605.3579,40.185856Q593.8158,40.654335,589.31903,50.924534Q585.67365,61.699192,593.6837,69.67755Q595.1172,70.997505,597.0473,72.05479L688.2593,120.40132Q691.9181,122.25664,695.63257,122.32614Q707.2247,121.99333,711.82874,111.721695Q715.62476,101.027374,707.49176,92.81707Q706.054,91.49838,704.12006,90.44437L612.90625,42.097263Q609.24084,40.249214,605.5248,40.189182"/> </g> <g style="fill:rgb(0,0,0); fill-opacity:1.0; stroke-linejoin: miter"> <path d="M613.3443,-36.850746Q602.39655,-36.574936,597.53235,-26.6566Q593.57385,-16.337221,600.9378,-8.066156Q602.6307,-6.2984333,605.073,-4.96089L675.1646,31.433403Q678.51166,33.129723,682.3484,33.251083Q693.60693,32.968887,698.3556,23.04786Q702.30615,12.726677,694.9335,4.459099Q693.238,2.6919746,690.79346,1.3565903L620.7008,-35.03769Q617.35175,-36.730526,613.5133,-36.847366"/> </g> <g style="fill:rgb(0,0,0); fill-opacity:1.0; stroke-linejoin: miter"> <path d="M1179.0011,-9.62463Q1175.3444,-9.674137,1171.6971,-8.006491L1090.9406,31.337742Q1088.8414,32.368004,1087.055,33.97606Q1079.064,41.985493,1082.608,52.585617Q1086.9178,62.751316,1098.2682,63.487583Q1102.2761,63.5051,1105.7787,61.814182L1186.5281,22.471008Q1188.679,21.369362,1190.2526,19.933249Q1198.2836,11.936979,1194.7705,1.3313131Q1190.502,-8.832684,1179.1788,-9.622676"/> </g> <g style="fill:rgb(0,0,0); fill-opacity:1.0; stroke-linejoin: miter"> <path d="M1193.0189,77.53396Q1190.0029,77.55296,1187.5054,78.4268L1100.2212,107.95428Q1097.9618,108.70971,1095.7952,110.24663Q1086.614,117.65857,1089.5538,129.03047Q1093.5358,140.02856,1105.4305,140.9321Q1108.3501,140.98509,1111.1826,140.03012L1198.4655,110.50296Q1200.7206,109.74394,1202.8824,108.20465Q1212.0447,100.78775,1209.0939,89.417786Q1205.0981,78.417595,1193.1831,77.535706"/> </g> </g> </svg>