<?xml version="1.0" encoding="UTF-8" standalone="no"?>
<svg
   version="1.1"
   width="57.546741"
   height="58.270451"
   viewBox="0 0 57.546741 58.270451"
   id="svg7"
   sodipodi:docname="man-4484226.svg"
   inkscape:version="1.1 (c4e8f9ed74, 2021-05-24)"
   xmlns:inkscape="http://www.inkscape.org/namespaces/inkscape"
   xmlns:sodipodi="http://sodipodi.sourceforge.net/DTD/sodipodi-0.dtd"
   xmlns="http://www.w3.org/2000/svg"
   xmlns:svg="http://www.w3.org/2000/svg">
  <defs
     id="defs11" />
  <sodipodi:namedview
     id="namedview9"
     pagecolor="#ffffff"
     bordercolor="#666666"
     borderopacity="1.0"
     inkscape:pageshadow="2"
     inkscape:pageopacity="0.0"
     inkscape:pagecheckerboard="0"
     showgrid="false"
     inkscape:zoom="0.56967213"
     inkscape:cx="34.230216"
     inkscape:cy="90.402878"
     inkscape:window-width="1340"
     inkscape:window-height="691"
     inkscape:window-x="10"
     inkscape:window-y="64"
     inkscape:window-maximized="1"
     inkscape:current-layer="svg7" />
  <g
     id="layer1"
     transform="translate(-265.03116,-399.00027)">
    <g
       style="fill:#000000;fill-opacity:1;stroke-linejoin:miter"
       id="g4">
      <path
         d="M 293.3585,399.00027 C 293.29337,399.00027 293.22867,399.00067 293.16382,399.0015 293.00012,399.00354 292.83646,399.0089 292.66315,399.01602 292.52377,399.02103 292.37958,399.02612 292.2241,399.03784 292.19165,399.0382 292.15765,399.04193 292.12366,399.0456 288.28146,399.27786 285.0955,400.76285 283.01218,403.27618 281.8005,404.74255 280.98395,406.55402 280.64,408.56528 280.32947,410.3994 280.38678,412.34402 280.8197,414.3891 281.0769,415.6129 281.1892,415.9049 282.05557,417.61053 282.66586,418.81213 282.8427,419.2054 283.06833,419.8623 283.3867,420.80328 283.4401,421.4267 283.27707,422.3706 283.14987,423.07742 282.89236,424.23816 282.73596,424.81073 282.70316,424.91006 282.61655,425.237 282.53598,425.5282 282.39352,426.05197 282.34085,426.24234 282.04697,427.22192 L 282.0405,427.22205 C 282.0169,427.2643 281.9926,427.30713 281.96768,427.35046 V 427.35046 Q 281.93088,427.32327 281.89444,427.29584 H 281.89163 L 281.84766,427.55884 H 281.84485 C 281.58,427.9982 281.2524,428.48148 280.8762,428.97147 280.45078,429.54922 280.02277,430.5581 279.9698,431.23477 279.87582,432.08997 279.63467,432.58838 278.95306,433.20862 H 278.95026 C 278.84772,433.28024 278.76135,433.33362 278.69614,433.3647 277.84326,433.7419 272.5785,439.00668 271.26642,440.7616 269.6099,442.99213 268.2158,445.56714 267.14972,448.28973 266.8545,449.0442 265.96884,452.40637 265.37842,454.96497 265.2834,455.3623 265.14288,456.1145 265.03116,456.77826 H 265.0338 L 306.15186,457.13016 V 457.13016 457.13016 L 308.26752,457.14825 H 308.26755 Q 305.398,448.63333 303.4611,445.25903 302.26456,443.09528 300.6325,441.14316 H 300.62952 C 300.25287,438.03476 299.52542,435.81943 298.2478,433.92035 H 298.2448 C 298.54172,433.42285 298.62106,433.07135 298.68912,432.2002 298.7875,430.8225 298.8203,430.72412 299.5912,429.88763 300.0504,429.3792 300.21442,429.29718 300.88684,429.29718 302.36298,429.29718 303.62585,430.3961 304.13428,432.1674 304.79034,434.43073 304.87234,434.57837 306.44684,436.18567 308.57898,438.367 308.7758,438.58026 309.153,439.3183 309.56305,440.12195 309.74347,441.89325 309.48105,442.3853 309.33344,442.68054 309.34985,442.97577 309.61224,443.8614 310.02228,445.2883 310.4323,447.6501 310.56354,449.47058 310.66193,450.8647 310.64554,450.9303 310.2027,451.50433 309.34985,452.63602 309.41544,454.27612 310.4159,456.04745 310.76517,456.67618 310.81693,456.7931 310.6624,457.1688 H 310.6655 L 322.5779,457.27072 V 457.27072 C 322.5177,456.2185 322.1124,453.94424 321.74908,452.71802 321.55228,452.0456 321.20786,451.35672 320.84705,450.9303 320.5354,450.55307 320.1254,449.94623 319.94498,449.6018 319.46936,448.6505 318.9937,446.27237 318.79688,443.6482 318.63287,441.59805 318.5673,441.3192 318.23926,441.024 317.97684,440.7944 317.82922,440.4336 317.74722,439.74472 317.69803,439.21988 317.534,438.531 317.4028,438.2358 317.23877,437.8258 317.1732,436.9237 317.1732,434.9228 317.1732,433.41388 317.0912,431.905 317.00916,431.59335 316.3203,428.96918 316.18912,428.60834 315.50024,427.80472 315.38538,427.66898 315.27612,427.54572 315.1711,427.43427 H 315.16794 Q 314.98343,427.16614 314.8116,426.9641 313.98834,425.95325 312.93118,425.56714 312.18182,425.2899 311.0989,425.2899 309.58405,425.2899 307.41653,425.83243 V 425.83243 C 307.41586,425.82837 307.4152,425.82425 307.41452,425.82013 307.3489,425.49213 307.1521,425.01654 306.97168,424.78687 306.7843,424.54095 306.6304,424.4372 306.28305,424.39795 H 306.27997 C 306.36047,424.3126 306.45618,424.2213 306.56992,424.12064 306.93375,423.7966 306.97366,423.7507 306.98694,423.64517 307.00476,423.5185 306.94803,423.39117 306.75308,423.10675 306.54996,422.8127 306.48,422.6661 306.51804,422.5975 306.52753,422.57794 306.62387,422.50864 306.73175,422.44885 307.22586,422.17184 307.3843,422.01257 307.4247,421.7478 307.45163,421.57077 307.41763,421.44803 307.2319,421.1213 307.08096,420.85416 307.03357,420.7023 307.0299,420.5386 307.029,420.46735 307.00052,420.27155 306.97247,420.1033 306.9079,419.74423 306.9189,419.58847 307.0163,419.47217 307.12787,419.328 307.31348,419.26242 307.68118,419.24152 307.71356,419.23785 307.7459,419.2342 307.7816,419.23376 307.80103,419.23187 307.82047,419.2316 307.84155,419.23138 307.85202,419.23123 307.86255,419.2312 307.8732,419.2312 307.89645,419.2312 307.92017,419.2314 307.9443,419.2314 307.95535,419.2314 307.9665,419.23138 307.97772,419.23123 307.9805,419.23166 307.9833,419.23196 307.9861,419.23218 307.99014,419.23245 307.99417,419.23254 307.9982,419.23254 308.0011,419.23254 308.004,419.2325 308.0069,419.23245 308.02475,419.23224 308.0442,419.23038 308.062,419.23016 308.1932,419.22202 308.31113,419.18805 308.5839,419.09387 309.23105,418.8635 309.50104,418.68338 309.63016,418.38504 309.73572,418.14542 309.70422,417.83618 309.5178,417.32956 309.2811,416.69064 308.9076,416.00964 307.78323,414.15497 307.08765,413.00153 306.71973,412.36755 306.4736,411.88443 L 306.32556,411.58963 306.42065,411.41818 C 306.74722,410.84012 306.8453,410.2715 306.78476,409.33856 306.68958,407.8532 306.25436,406.39337 305.53104,405.10086 304.9754,404.11264 304.19458,403.14026 303.33035,402.3618 301.7658,400.95038 299.62888,399.90457 297.31253,399.41217 297.09314,399.36633 296.8607,399.31903 296.7908,399.30377 296.56818,399.25385 294.98196,399.06815 294.54172,399.0365 294.52225,399.0351 294.50504,399.034 294.49026,399.03323 294.05286,399.01154 293.7003,399.00027 293.3585,399.00027 Z"
         id="path2" />
    </g>
  </g>
</svg>
