<?xml version="1.0" encoding="UTF-8" standalone="no"?>
<!-- Created with Inkscape (http://www.inkscape.org/) -->

<svg
   width="113.85993mm"
   height="112.62605mm"
   viewBox="0 0 113.85993 112.62605"
   version="1.1"
   id="svg5"
   sodipodi:docname="notes.svg"
   inkscape:version="1.1 (c4e8f9ed74, 2021-05-24)"
   xmlns:inkscape="http://www.inkscape.org/namespaces/inkscape"
   xmlns:sodipodi="http://sodipodi.sourceforge.net/DTD/sodipodi-0.dtd"
   xmlns="http://www.w3.org/2000/svg"
   xmlns:svg="http://www.w3.org/2000/svg">
  <sodipodi:namedview
     id="namedview7"
     pagecolor="#ffffff"
     bordercolor="#666666"
     borderopacity="1.0"
     inkscape:pageshadow="2"
     inkscape:pageopacity="0.0"
     inkscape:pagecheckerboard="0"
     inkscape:document-units="mm"
     showgrid="false"
     inkscape:zoom="1"
     inkscape:cx="391"
     inkscape:cy="289"
     inkscape:window-width="1340"
     inkscape:window-height="712"
     inkscape:window-x="10"
     inkscape:window-y="40"
     inkscape:window-maximized="1"
     inkscape:current-layer="g42450"
     showguides="false"
     inkscape:snap-global="false" />
  <defs
     id="defs2" />
  <g
     inkscape:label="Layer 1"
     inkscape:groupmode="layer"
     id="layer1"
     transform="translate(-54.186096,-73.69393)">
    <path
       style="fill:none;stroke:#000000;stroke-width:0.4;stroke-linecap:butt;stroke-linejoin:miter;stroke-miterlimit:4;stroke-dasharray:none;stroke-opacity:1"
       d="M 59.756648,84.655416 139.79613,76.530086 156.5524,176.52195 77.412462,186.09862 Z"
       id="path28645-3"
       sodipodi:nodetypes="ccccc" />
    <path
       style="fill:#ffffff;stroke:#000000;stroke-width:0.4;stroke-linecap:butt;stroke-linejoin:miter;stroke-miterlimit:4;stroke-dasharray:none;stroke-opacity:1"
       d="M 59.016017,84.094733 139.0555,75.969413 155.81177,175.96127 76.671831,185.53794 Z"
       id="path28645-2"
       sodipodi:nodetypes="ccccc" />
    <path
       style="fill:#ffffff;stroke:#000000;stroke-width:0.4;stroke-linecap:butt;stroke-linejoin:miter;stroke-miterlimit:4;stroke-dasharray:none;stroke-opacity:1"
       d="M 57.904212,83.450636 137.94353,75.325361 154.6998,175.31708 75.560011,184.89375 Z"
       id="path28645-2-0"
       sodipodi:nodetypes="ccccc" />
    <path
       style="fill:#ffffff;stroke:#000000;stroke-width:0.4;stroke-linecap:butt;stroke-linejoin:miter;stroke-miterlimit:4;stroke-dasharray:none;stroke-opacity:1"
       d="M 56.792439,82.037165 136.83192,73.911837 153.58819,173.9037 74.448253,183.48037 Z"
       id="path28645"
       sodipodi:nodetypes="ccccc" />
    <g
       id="g39687">
      <path
         style="fill:none;stroke:#000000;stroke-width:0.8;stroke-linecap:butt;stroke-linejoin:miter;stroke-miterlimit:4;stroke-dasharray:none;stroke-opacity:1"
         d="M 64.611467,91.196138 133.43543,83.099571"
         id="path29143" />
      <path
         style="fill:none;stroke:#000000;stroke-width:0.8;stroke-linecap:butt;stroke-linejoin:miter;stroke-miterlimit:4;stroke-dasharray:none;stroke-opacity:1"
         d="M 65.50287,98.598254 134.32683,90.501687"
         id="path29143-3" />
      <path
         style="fill:none;stroke:#000000;stroke-width:0.8;stroke-linecap:butt;stroke-linejoin:miter;stroke-miterlimit:4;stroke-dasharray:none;stroke-opacity:1"
         d="M 67.353354,105.76361 136.17731,97.667041"
         id="path29143-5" />
      <path
         style="fill:none;stroke:#000000;stroke-width:0.8;stroke-linecap:butt;stroke-linejoin:miter;stroke-miterlimit:4;stroke-dasharray:none;stroke-opacity:1"
         d="M 68.037699,113.10168 136.86167,105.00512"
         id="path29143-35" />
      <path
         style="fill:none;stroke:#000000;stroke-width:0.8;stroke-linecap:butt;stroke-linejoin:miter;stroke-miterlimit:4;stroke-dasharray:none;stroke-opacity:1"
         d="M 68.778271,119.51957 137.60224,111.423"
         id="path29143-3-6" />
      <path
         style="fill:none;stroke:#000000;stroke-width:0.8;stroke-linecap:butt;stroke-linejoin:miter;stroke-miterlimit:4;stroke-dasharray:none;stroke-opacity:1"
         d="M 70.127769,127.16989 138.95173,119.07332"
         id="path29143-5-2" />
      <path
         style="fill:none;stroke:#000000;stroke-width:0.8;stroke-linecap:butt;stroke-linejoin:miter;stroke-miterlimit:4;stroke-dasharray:none;stroke-opacity:1"
         d="M 71.898251,135.00276 140.72221,126.90619"
         id="path29143-9" />
      <path
         style="fill:none;stroke:#000000;stroke-width:0.8;stroke-linecap:butt;stroke-linejoin:miter;stroke-miterlimit:4;stroke-dasharray:none;stroke-opacity:1"
         d="M 73.48985,142.42323 142.31381,134.32667"
         id="path29143-3-1" />
      <path
         style="fill:none;stroke:#000000;stroke-width:0.8;stroke-linecap:butt;stroke-linejoin:miter;stroke-miterlimit:4;stroke-dasharray:none;stroke-opacity:1"
         d="M 73.637172,149.37564 142.46113,141.27907"
         id="path29143-5-27" />
      <path
         style="fill:none;stroke:#000000;stroke-width:0.8;stroke-linecap:butt;stroke-linejoin:miter;stroke-miterlimit:4;stroke-dasharray:none;stroke-opacity:1"
         d="M 75.795252,156.74361 144.61922,148.64705"
         id="path29143-35-0" />
      <path
         style="fill:none;stroke:#000000;stroke-width:0.8;stroke-linecap:butt;stroke-linejoin:miter;stroke-miterlimit:4;stroke-dasharray:none;stroke-opacity:1"
         d="M 76.686652,164.14573 145.51062,156.04916"
         id="path29143-3-6-9" />
      <path
         style="fill:none;stroke:#000000;stroke-width:0.8;stroke-linecap:butt;stroke-linejoin:miter;stroke-miterlimit:4;stroke-dasharray:none;stroke-opacity:1"
         d="M 78.442353,172.40683 147.26631,164.31026"
         id="path29143-5-2-3" />
    </g>
    <path
       style="fill:none;stroke:#000000;stroke-width:0.7;stroke-linecap:butt;stroke-linejoin:miter;stroke-miterlimit:4;stroke-dasharray:none;stroke-opacity:1"
       d="M 61.117712,94.330635 C 61.148779,89.707303 55.135282,91.250063 55.942924,93.952386 56.611629,96.189834 58.493909,96.563008 59.274267,96.176624"
       id="path29398"
       sodipodi:nodetypes="csc" />
    <path
       style="fill:none;stroke:#000000;stroke-width:0.7;stroke-linecap:butt;stroke-linejoin:miter;stroke-miterlimit:4;stroke-dasharray:none;stroke-opacity:1"
       d="M 59.841355,88.12569 C 59.872422,83.50236 53.858925,85.04512 54.666567,87.74744 55.335272,89.98489 57.217552,90.35807 57.99791,89.97168"
       id="path29398-0"
       sodipodi:nodetypes="csc" />
    <path
       style="fill:none;stroke:#000000;stroke-width:0.7;stroke-linecap:butt;stroke-linejoin:miter;stroke-miterlimit:4;stroke-dasharray:none;stroke-opacity:1"
       d="M 63.024477,105.39354 C 63.055544,100.77021 57.042047,102.31297 57.849689,105.01529 58.518394,107.25274 60.400674,107.62591 61.181032,107.23953"
       id="path29398-2"
       sodipodi:nodetypes="csc" />
    <path
       style="fill:none;stroke:#000000;stroke-width:0.7;stroke-linecap:butt;stroke-linejoin:miter;stroke-miterlimit:4;stroke-dasharray:none;stroke-opacity:1"
       d="M 62.270793,99.657188 C 62.30186,95.033861 56.288363,96.576621 57.096005,99.278938 57.76471,101.51639 59.64699,101.88957 60.427348,101.50318"
       id="path29398-0-8"
       sodipodi:nodetypes="csc" />
    <path
       style="fill:none;stroke:#000000;stroke-width:0.7;stroke-linecap:butt;stroke-linejoin:miter;stroke-miterlimit:4;stroke-dasharray:none;stroke-opacity:1"
       d="M 65.196426,118.14518 C 65.227493,113.52185 59.213996,115.06461 60.021638,117.76693 60.690343,120.00438 62.572623,120.37756 63.352981,119.99117"
       id="path29398-9"
       sodipodi:nodetypes="csc" />
    <path
       style="fill:none;stroke:#000000;stroke-width:0.7;stroke-linecap:butt;stroke-linejoin:miter;stroke-miterlimit:4;stroke-dasharray:none;stroke-opacity:1"
       d="M 64.085259,111.63486 C 64.116326,107.01153 58.102829,108.55429 58.910471,111.25661 59.579176,113.49406 61.461456,113.86724 62.241814,113.48085"
       id="path29398-0-0"
       sodipodi:nodetypes="csc" />
    <path
       style="fill:none;stroke:#000000;stroke-width:0.7;stroke-linecap:butt;stroke-linejoin:miter;stroke-miterlimit:4;stroke-dasharray:none;stroke-opacity:1"
       d="M 67.676552,132.47144 C 67.707619,127.84811 61.694122,129.39087 62.501764,132.09319 63.170469,134.33064 65.052749,134.70382 65.833107,134.31743"
       id="path29398-3"
       sodipodi:nodetypes="csc" />
    <path
       style="fill:none;stroke:#000000;stroke-width:0.7;stroke-linecap:butt;stroke-linejoin:miter;stroke-miterlimit:4;stroke-dasharray:none;stroke-opacity:1"
       d="M 66.642655,125.49115 C 66.673722,120.86782 60.660225,122.41058 61.467867,125.1129 62.136572,127.35035 64.018852,127.72353 64.79921,127.33714"
       id="path29398-0-5"
       sodipodi:nodetypes="csc" />
    <path
       style="fill:none;stroke:#000000;stroke-width:0.7;stroke-linecap:butt;stroke-linejoin:miter;stroke-miterlimit:4;stroke-dasharray:none;stroke-opacity:1"
       d="M 69.809622,144.66476 C 69.840689,140.04143 63.827192,141.58419 64.634834,144.28651 65.303539,146.52396 67.185819,146.89713 67.966177,146.51075"
       id="path29398-2-2"
       sodipodi:nodetypes="csc" />
    <path
       style="fill:none;stroke:#000000;stroke-width:0.7;stroke-linecap:butt;stroke-linejoin:miter;stroke-miterlimit:4;stroke-dasharray:none;stroke-opacity:1"
       d="M 68.850961,138.61334 C 68.882028,133.99001 62.868531,135.53277 63.676173,138.23509 64.344878,140.47254 66.227158,140.84572 67.007516,140.45933"
       id="path29398-0-8-8"
       sodipodi:nodetypes="csc" />
    <path
       style="fill:none;stroke:#000000;stroke-width:0.7;stroke-linecap:butt;stroke-linejoin:miter;stroke-miterlimit:4;stroke-dasharray:none;stroke-opacity:1"
       d="M 71.858565,156.42241 C 71.889632,151.79908 65.876135,153.34184 66.683777,156.04416 67.352482,158.28161 69.234762,158.65479 70.01512,158.2684"
       id="path29398-9-7"
       sodipodi:nodetypes="csc" />
    <path
       style="fill:none;stroke:#000000;stroke-width:0.7;stroke-linecap:butt;stroke-linejoin:miter;stroke-miterlimit:4;stroke-dasharray:none;stroke-opacity:1"
       d="M 70.899904,150.37099 C 70.930971,145.74766 64.917474,147.29042 65.725116,149.99274 66.393821,152.23019 68.276101,152.60337 69.056459,152.21698"
       id="path29398-0-0-6"
       sodipodi:nodetypes="csc" />
    <path
       style="fill:none;stroke:#000000;stroke-width:0.7;stroke-linecap:butt;stroke-linejoin:miter;stroke-miterlimit:4;stroke-dasharray:none;stroke-opacity:1"
       d="M 74.143815,168.80977 C 74.174882,164.18643 68.161385,165.72919 68.969027,168.43152 69.637732,170.66897 71.520012,171.04214 72.30037,170.65576"
       id="path29398-29"
       sodipodi:nodetypes="csc" />
    <path
       style="fill:none;stroke:#000000;stroke-width:0.7;stroke-linecap:butt;stroke-linejoin:miter;stroke-miterlimit:4;stroke-dasharray:none;stroke-opacity:1"
       d="M 73.185154,162.75835 C 73.216221,158.13502 67.202724,159.67778 68.010366,162.3801 68.679071,164.61755 70.561351,164.99073 71.341709,164.60434"
       id="path29398-0-1"
       sodipodi:nodetypes="csc" />
    <path
       style="fill:none;stroke:#000000;stroke-width:0.7;stroke-linecap:butt;stroke-linejoin:miter;stroke-miterlimit:4;stroke-dasharray:none;stroke-opacity:1"
       d="M 76.276885,181.00308 C 76.307952,176.37975 70.294455,177.92251 71.102097,180.62483 71.770802,182.86228 73.653082,183.23545 74.43344,182.84907"
       id="path29398-2-7"
       sodipodi:nodetypes="csc" />
    <path
       style="fill:none;stroke:#000000;stroke-width:0.7;stroke-linecap:butt;stroke-linejoin:miter;stroke-miterlimit:4;stroke-dasharray:none;stroke-opacity:1"
       d="M 75.318224,174.95166 C 75.349291,170.32833 69.335794,171.87109 70.143436,174.57341 70.812141,176.81086 72.694421,177.18404 73.474779,176.79765"
       id="path29398-0-8-4"
       sodipodi:nodetypes="csc" />
    <g
       id="g39626"
       transform="translate(61.924103,6.2032185)">
      <g
         id="g42450"
         transform="translate(-67.671556,-0.32850062)">
        <path
           style="fill:#000000;fill-opacity:1;stroke:#000000;stroke-width:0.421739px;stroke-linecap:butt;stroke-linejoin:miter;stroke-opacity:1"
           d="M 123.23789,150.38465 153.40553,93.572988 160.791,96.775074 130.40342,152.50135 Z"
           id="path31791"
           sodipodi:nodetypes="ccccc" />
        <path
           style="fill:#000000;fill-opacity:1;stroke:#000000;stroke-width:0.421739px;stroke-linecap:butt;stroke-linejoin:round;stroke-opacity:1"
           d="M 122.14208,152.33242 129.28574,154.51468 120.53995,163.62271 Z"
           id="path32157"
           sodipodi:nodetypes="cccc" />
        <path
           style="fill:#000000;fill-opacity:1;stroke:#000000;stroke-width:0.421739px;stroke-linecap:butt;stroke-linejoin:miter;stroke-opacity:1"
           d="M 154.50134,91.625226 163.56881,75.577793 171.16988,78.307551 161.81526,95.110223 Z"
           id="path32305"
           sodipodi:nodetypes="ccccc" />
        <path
           style="fill:none;stroke:#000000;stroke-width:2.122;stroke-linecap:butt;stroke-linejoin:miter;stroke-miterlimit:4;stroke-dasharray:none;stroke-opacity:1"
           d="M 170.00085,80.634543 172.30575,81.688803 159.68668,104.2469"
           id="path34964"
           sodipodi:nodetypes="ccc" />
        <path
           style="fill:#ffffff;fill-opacity:1;stroke:#ffffff;stroke-width:0.422;stroke-linecap:butt;stroke-linejoin:miter;stroke-miterlimit:4;stroke-dasharray:none;stroke-opacity:1"
           d="M 123.12902,150.22715 122.17079,152.15145 129.28574,154.51468 130.58,152.78397 Z"
           id="path36543"
           sodipodi:nodetypes="ccccc" />
        <path
           style="fill:#ffffff;fill-opacity:1;stroke:#ffffff;stroke-width:0.422;stroke-linecap:butt;stroke-linejoin:miter;stroke-miterlimit:4;stroke-dasharray:none;stroke-opacity:1"
           d="M 154.41311,91.754003 153.46629,93.402016 160.72503,96.911893 161.78855,95.220252 Z"
           id="path36543-6"
           sodipodi:nodetypes="ccccc" />
      </g>
    </g>
  </g>
</svg>
